HIERARCHY
ROOT hips
{
  OFFSET 0 10.6860622 2.3727825e-15
  CHANNELS 6 Xposition Yposition Zposition Yrotation Xrotation Zrotation
  JOINT leftUpperLeg
  {
    OFFSET 0.6642549969 -0.9402397400000004 0
    CHANNELS 3 Yrotation Xrotation Zrotation
    JOINT leftLowerLeg
    {
      OFFSET 0 -3.997221335632195 0
      CHANNELS 3 Yrotation Xrotation Zrotation
      JOINT leftFoot
      {
        OFFSET -0.13777839790000004 -4.6145792000000005 -0.22186036399999998
        CHANNELS 3 Yrotation Xrotation Zrotation
        JOINT leftToes
        {
          OFFSET -0.03777410834999995 -0.9130806927000008 0.85230013
          CHANNELS 3 Yrotation Xrotation Zrotation
          End Site
          {
            OFFSET -0.03777410834999995 -0.9130806927000008 0.85230013
          }
        }
      }
    }
  }
  JOINT rightUpperLeg
  {
    OFFSET -0.6642778626 -0.9402397400000004 0
    CHANNELS 3 Yrotation Xrotation Zrotation
    JOINT rightLowerLeg
    {
      OFFSET 0 -3.997221452859387 0
      CHANNELS 3 Yrotation Xrotation Zrotation
      JOINT rightFoot
      {
        OFFSET 0.1377926176 -4.6145792000000005 -0.22185782299999995
        CHANNELS 3 Yrotation Xrotation Zrotation
        JOINT rightToes
        {
          OFFSET 0.037780746850000047 -0.9130806927000008 0.85230167
          CHANNELS 3 Yrotation Xrotation Zrotation
          End Site
          {
            OFFSET 0.037780746850000047 -0.9130806927000008 0.85230167
          }
        }
      }
    }
  }
  JOINT spine
  {
    OFFSET 0 0.13988381660000015 0
    CHANNELS 3 Yrotation Xrotation Zrotation
    JOINT chest
    {
      OFFSET 0 0.6191039003973773 0
      CHANNELS 3 Yrotation Xrotation Zrotation
      JOINT upperChest
      {
        OFFSET 0 0.9855186130586943 0
        CHANNELS 3 Yrotation Xrotation Zrotation
        JOINT leftShoulder
        {
          OFFSET 0.1807663869 1.5087829790000005 0
          CHANNELS 3 Yrotation Xrotation Zrotation
          JOINT leftUpperArm
          {
            OFFSET 0.5985063006419806 0 0
            CHANNELS 3 Yrotation Xrotation Zrotation
            JOINT leftLowerArm
            {
              OFFSET 2.2993332369501065 0 0
              CHANNELS 3 Yrotation Xrotation Zrotation
              JOINT leftHand
              {
                OFFSET 2.395047042602395 0 0
                CHANNELS 3 Yrotation Xrotation Zrotation
                JOINT leftIndexProximal
                {
                  OFFSET 0.5766295810000004 0.04556643899499946 0.17265095988184
                  CHANNELS 3 Yrotation Xrotation Zrotation
                  JOINT leftIndexIntermediate
                  {
                    OFFSET 0.2957229000000008 -0.019352197700001517 -0.007932640616999987
                    CHANNELS 3 Yrotation Xrotation Zrotation
                    JOINT leftIndexDistal
                    {
                      OFFSET 0.19008243099999922 -0.012484908149998475 -0.002786250786000012
                      CHANNELS 3 Yrotation Xrotation Zrotation
                      End Site
                      {
                        OFFSET 0.19008243099999922 -0.012484908149998475 -0.002786250786000012
                      }
                    }
                  }
                }
                JOINT leftMiddleProximal
                {
                  OFFSET 0.5834975091000001 0.0524350405149987 0.02204081888183999
                  CHANNELS 3 Yrotation Xrotation Zrotation
                  JOINT leftMiddleIntermediate
                  {
                    OFFSET 0.33880573540000003 -0.019871473270000717 -0.00000971183179999946
                    CHANNELS 3 Yrotation Xrotation Zrotation
                    JOINT leftMiddleDistal
                    {
                      OFFSET 0.20676022730000088 -0.012221336379999448 0.0001471936708000235
                      CHANNELS 3 Yrotation Xrotation Zrotation
                      End Site
                      {
                        OFFSET 0.20676022730000088 -0.012221336379999448 0.0001471936708000235
                      }
                    }
                  }
                }
                JOINT leftLittleProximal
                {
                  OFFSET 0.5344154683999995 -0.012880921405001189 -0.24414037221816004
                  CHANNELS 3 Yrotation Xrotation Zrotation
                  JOINT leftLittleIntermediate
                  {
                    OFFSET 0.21758961730000093 -0.011650919939999227 0.011893592810000034
                    CHANNELS 3 Yrotation Xrotation Zrotation
                    JOINT leftLittleDistal
                    {
                      OFFSET 0.1475273964999999 -0.008152365682999818 0.006001092492999946
                      CHANNELS 3 Yrotation Xrotation Zrotation
                      End Site
                      {
                        OFFSET 0.1475273964999999 -0.008152365682999818 0.006001092492999946
                      }
                    }
                  }
                }
                JOINT leftRingProximal
                {
                  OFFSET 0.5799399463000003 0.026911854694997794 -0.12150566991816003
                  CHANNELS 3 Yrotation Xrotation Zrotation
                  JOINT leftRingIntermediate
                  {
                    OFFSET 0.26167887460000006 -0.013480186499999602 0.010996293000000053
                    CHANNELS 3 Yrotation Xrotation Zrotation
                    JOINT leftRingDistal
                    {
                      OFFSET 0.17667108799999987 -0.008990287899999228 0.0055541023999999065
                      CHANNELS 3 Yrotation Xrotation Zrotation
                      End Site
                      {
                        OFFSET 0.17667108799999987 -0.008990287899999228 0.0055541023999999065
                      }
                    }
                  }
                }
                JOINT leftThumbProximal
                {
                  OFFSET 0.11018806699999972 -0.09448718900500053 0.17047963138184
                  CHANNELS 3 Yrotation Xrotation Zrotation
                  JOINT leftThumbIntermediate
                  {
                    OFFSET 0.31062601459999983 -0.08126270900000132 0.15443142000000007
                    CHANNELS 3 Yrotation Xrotation Zrotation
                    JOINT leftThumbDistal
                    {
                      OFFSET 0.21627175790000086 -0.08833193599999878 0.018771167799999988
                      CHANNELS 3 Yrotation Xrotation Zrotation
                      End Site
                      {
                        OFFSET 0.21627175790000086 -0.08833193599999878 0.018771167799999988
                      }
                    }
                  }
                }
              }
            }
          }
        }
        JOINT neck
        {
          OFFSET 0 1.5463305265074576 0
          CHANNELS 3 Yrotation Xrotation Zrotation
          JOINT head
          {
            OFFSET 0 0.8456443600000344 0
            CHANNELS 3 Yrotation Xrotation Zrotation
            JOINT leftEye
            {
              OFFSET 0.30408573140000006 0.5104519199999995 0.1276382305
              CHANNELS 3 Yrotation Xrotation Zrotation
              End Site
              {
                OFFSET 0.30408573140000006 0.5104519199999995 0.1276382305
              }
            }
            JOINT rightEye
            {
              OFFSET -0.30409491089999996 0.5104519199999995 0.1276379445
              CHANNELS 3 Yrotation Xrotation Zrotation
              End Site
              {
                OFFSET -0.30409491089999996 0.5104519199999995 0.1276379445
              }
            }
            JOINT jaw
            {
              OFFSET -3.155239131000001e-7 -0.11984121820000082 0.60178107
              CHANNELS 3 Yrotation Xrotation Zrotation
              End Site
              {
                OFFSET -3.155239131000001e-7 -0.11984121820000082 0.60178107
              }
            }
          }
        }
        JOINT rightShoulder
        {
          OFFSET -0.1807303465 1.5087829790000005 0
          CHANNELS 3 Yrotation Xrotation Zrotation
          JOINT rightUpperArm
          {
            OFFSET -0.5985063796536958 0 0
            CHANNELS 3 Yrotation Xrotation Zrotation
            JOINT rightLowerArm
            {
              OFFSET -2.2993322059002854 0 0
              CHANNELS 3 Yrotation Xrotation Zrotation
              JOINT rightHand
              {
                OFFSET -2.395045314457259 0 0
                CHANNELS 3 Yrotation Xrotation Zrotation
                JOINT rightIndexProximal
                {
                  OFFSET -0.5764487688300002 0.0441371204405987 0.17361932004999997
                  CHANNELS 3 Yrotation Xrotation Zrotation
                  JOINT rightIndexIntermediate
                  {
                    OFFSET -0.29573011380000047 -0.01934826376999843 -0.007698921482999974
                    CHANNELS 3 Yrotation Xrotation Zrotation
                    JOINT rightIndexDistal
                    {
                      OFFSET -0.19008373999999884 -0.012503266380000655 -0.0026365778999999897
                      CHANNELS 3 Yrotation Xrotation Zrotation
                      End Site
                      {
                        OFFSET -0.19008373999999884 -0.012503266380000655 -0.0026365778999999897
                      }
                    }
                  }
                }
                JOINT rightMiddleProximal
                {
                  OFFSET -0.5834852037300005 0.05211639405060153 0.02307162440000001
                  CHANNELS 3 Yrotation Xrotation Zrotation
                  JOINT rightMiddleIntermediate
                  {
                    OFFSET -0.33880114510000003 -0.019952774050000954 0.0002455003561999819
                    CHANNELS 3 Yrotation Xrotation Zrotation
                    JOINT rightMiddleDistal
                    {
                      OFFSET -0.20675694929999955 -0.012273788999999091 0.00030209124000002766
                      CHANNELS 3 Yrotation Xrotation Zrotation
                      End Site
                      {
                        OFFSET -0.20675694929999955 -0.012273788999999091 0.00030209124000002766
                      }
                    }
                  }
                }
                JOINT rightLittleProximal
                {
                  OFFSET -0.5346811737299992 -0.011214256288399227 -0.24363941305000003
                  CHANNELS 3 Yrotation Xrotation Zrotation
                  JOINT rightLittleIntermediate
                  {
                    OFFSET -0.21757715980000092 -0.011771559690000988 0.01201554387
                    CHANNELS 3 Yrotation Xrotation Zrotation
                    JOINT rightLittleDistal
                    {
                      OFFSET -0.1475201849000004 -0.00822055339600003 0.006082065407000015
                      CHANNELS 3 Yrotation Xrotation Zrotation
                      End Site
                      {
                        OFFSET -0.1475201849000004 -0.00822055339600003 0.006082065407000015
                      }
                    }
                  }
                }
                JOINT rightRingProximal
                {
                  OFFSET -0.5800810755299999 0.027657985680600072 -0.12066365025000003
                  CHANNELS 3 Yrotation Xrotation Zrotation
                  JOINT rightRingIntermediate
                  {
                    OFFSET -0.26166445029999974 -0.013623118409999302 0.011164098990000045
                    CHANNELS 3 Yrotation Xrotation Zrotation
                    JOINT rightRingDistal
                    {
                      OFFSET -0.17666387530000027 -0.009072900100000503 0.005668185599999959
                      CHANNELS 3 Yrotation Xrotation Zrotation
                      End Site
                      {
                        OFFSET -0.17666387530000027 -0.009072900100000503 0.005668185599999959
                      }
                    }
                  }
                }
                JOINT rightThumbProximal
                {
                  OFFSET -0.10997596379000074 -0.09577489355940072 0.16989765924999997
                  CHANNELS 3 Yrotation Xrotation Zrotation
                  JOINT rightThumbIntermediate
                  {
                    OFFSET -0.31036620999999986 -0.08229339117999834 0.15440884469999996
                    CHANNELS 3 Yrotation Xrotation Zrotation
                    JOINT rightThumbDistal
                    {
                      OFFSET -0.21631306399999906 -0.08825326400000111 0.018656797720000014
                      CHANNELS 3 Yrotation Xrotation Zrotation
                      End Site
                      {
                        OFFSET -0.21631306399999906 -0.08825326400000111 0.018656797720000014
                      }
                    }
                  }
                }
              }
            }
          }
        }
      }
    }
  }
}
MOTION
Frames: 8
Frame Time: 0.03333333333333333
0 11.682712981546562 0 0 0 0 0 0 -5.826343164929014 -0.3712483961610101 -3.6333298826370974 5.838118207697276 0 0 0 0 0 0 0 0 5.826343164929014 0.3712483961610101 -3.6333298826370974 -5.838118207697276 0 0 0 0 0 0 0 -4.610651315171937 0 0 3.0831277533083026 0 0 0 0 0 1.5275236235667615 0 0 0 0 0 0 0 0 0 0 0 0 0 0 0 0 0 0 0 0 0 0 0 0 0 0 0 0 0 0 0 0 0 0 0 0 0 0 0 0 0 0 0 0 0 0 0 0 0 0 0 0 0 0 0 0 1.5275236235667615 0 0 0 0 0 0 0 0 0 0 0 0 0 0 1.5275236235667615 0 0 0 0 0 0 0 0 0 0 0 0 0 0 0 0 0 0 0 0 0 0 0 0 0 0 0 0 0 0 0 0 0 0 0 0 0 0 0 0 0 0 0 0 0 0 0 0 0 0 0 0 0 0 0
-0.36036225091453 -5.042655982361666 -3.609269214141309 0 -9.0055796417383 0 6.229932647222157 -0.42123161922846003 8.680435537353217 -68.23816671745386 88.51009688018877 -63.62631500295334 26.248112459458387 54.4708942838359 31.256031091508785 0 0 0 -6.18410254630328 -1.2757752603651369 -9.807929918225247 77.41356081211845 88.49871327146121 72.64218730395716 -25.246261698424107 54.581256370636204 -31.216805499000223 0 0 0 -0.21222001365446744 36.908768753111495 -0.22940125220000346 -0.3643159967849662 31.72766253047832 0.3467873785846552 0 0 0 -36.539798969757754 16.853175654567796 3.3207859222245286 23.93147129973111 -48.3012882775185 -45.78014883939031 -119.21903113341985 44.05578833996983 7.024050206946778 -18.587447092460476 -28.001677435675102 3.05107801216991 0 0 0 0 0 0 0 0 0 0 0 0 0 0 0 0 0 0 0 0 0 0 0 0 0 0 0 0 0 0 0 0 0 0 0 0 0 0 0 0 0 0 0 0 0 -0.002199897412616734 30.528380081538504 0.44547051647410796 -0.00953616206504575 -6.837129150167941 4.529820142333697 0 0 0 0 0 0 0 0 0 17.744919853049346 15.8357256916968 2.9793253870285854 -27.489955097911924 -54.24575073749039 84.86565788299863 61.635277969217285 8.073152845616114 56.66270126647971 -23.428016599814733 -0.9634653588650339 17.18239864355722 0 0 0 0 0 0 0 0 0 0 0 0 0 0 0 0 0 0 0 0 0 0 0 0 0 0 0 0 0 0 0 0 0 0 0 0 0 0 0 0 0 0 0 0 0
-0.36036225091453 -5.055306786265813 -3.6261368632160824 0 -9.00558050616768 0 6.193911573655356 -0.6461965522156464 8.666969876484345 -78.87263275931093 88.61407238839558 -74.26393367142666 26.248112459458387 54.4708942838359 31.256031091508785 0 0 0 -6.143709283448193 -1.5006255917685327 -9.79432082806805 88.29509570867778 88.55937835408864 83.52706958151518 -25.246261698424107 54.581256370636204 -31.216805499000223 0 0 0 -0.21190399052514988 36.755007970854415 -0.22878236305887023 -0.3658539984097958 32.11185814764762 0.34389793570234534 0 0 0 -36.253308025812885 16.52651995485308 3.933904193929015 23.93147129973111 -48.3012882775185 -45.78014883939031 -119.21903113341985 44.05578833996983 7.024050206946778 -18.315670355922624 -28.37128004945721 3.071521044447744 0 0 0 0 0 0 0 0 0 0 0 0 0 0 0 0 0 0 0 0 0 0 0 0 0 0 0 0 0 0 0 0 0 0 0 0 0 0 0 0 0 0 0 0 0 -0.002199897412616734 30.528380081538504 0.44547051647410796 -0.009586152325406364 -7.029416951140429 4.529920869914888 0 0 0 0 0 0 0 0 0 17.194175536967347 15.529183403542593 2.5234732875341157 -27.38811762866482 -54.010268523796114 84.96844887769757 62.188717700714776 7.077042265993787 57.001523495509794 -24.320655808317042 -1.1596891679224477 16.578913892610053 0 0 0 0 0 0 0 0 0 0 0 0 0 0 0 0 0 0 0 0 0 0 0 0 0 0 0 0 0 0 0 0 0 0 0 0 0 0 0 0 0 0 0 0 0
-0.36036225091453 -5.067957590169961 -3.6430045122908554 0 -9.005581370597064 0 6.157941246724074 -0.8711699272274007 8.653644293313997 -90.74708574493035 88.6638193930075 -86.14154058024216 26.248112459458387 54.4708942838359 31.256031091508785 0 0 0 -6.103365369481974 -1.7254854819335563 -9.780869373179696 99.6836933365322 88.56468580971612 94.91901403228997 -25.246261698424107 54.581256370636204 -31.216805499000223 0 0 0 -0.21159067471739357 36.60124422139627 -0.22816575305699324 -0.36742149468705776 32.496053753922375 0.3409840053256874 0 0 0 -35.970955951396476 16.196955657724178 4.544284012255517 23.93147129973111 -48.3012882775185 -45.78014883939031 -119.21903113341985 44.05578833996983 7.024050206946778 -18.043087144548196 -28.740963463470838 3.0900360875633104 0 0 0 0 0 0 0 0 0 0 0 0 0 0 0 0 0 0 0 0 0 0 0 0 0 0 0 0 0 0 0 0 0 0 0 0 0 0 0 0 0 0 0 0 0 -0.002199897412616734 30.528380081538504 0.44547051647410796 -0.009636502626980847 -7.221704752584831 4.530021476656926 0 0 0 0 0 0 0 0 0 16.646788202160085 15.218450910721193 2.071370383582458 -27.286136739086036 -53.77489206497094 85.0713701221976 62.73511405546373 6.077753554376327 57.32997737954624 -25.211250041279232 -1.3652785735603437 15.978510814412902 0 0 0 0 0 0 0 0 0 0 0 0 0 0 0 0 0 0 0 0 0 0 0 0 0 0 0 0 0 0 0 0 0 0 0 0 0 0 0 0 0 0 0 0 0
-0.36036225091453 -5.093259466370527 -3.6767398104404014 0 -9.005578777308923 0 6.08613330399953 -1.3212188950552368 8.627404567133565 -114.50619813719207 88.58390204134719 -109.9069641659938 26.248112459458387 54.4708942838359 31.256031091508785 0 0 0 -6.022802274205872 -2.175311141001488 -9.754423950490118 120.7002061357349 88.41304051192556 115.94222449590004 -25.246259185135248 54.581256370636204 -31.21680091792561 0 0 0 -0.21097221075595046 36.29369077020004 -0.22693939434970267 -0.37064883112996316 33.264825116610204 0.3350769891252866 0 0 0 -35.41780143055252 15.528235254928461 5.758842388387764 23.93146921722478 -48.30128314368692 -45.780146999761335 -119.21903088741023 44.05578358795939 7.024049625842668 -17.494984143802572 -29.48108151185604 3.121226444107249 0 0 0 0 0 0 0 0 0 0 0 0 0 0 0 0 0 0 0 0 0 0 0 0 0 0 0 0 0 0 0 0 0 0 0 0 0 0 0 0 0 0 0 0 0 -0.002199897412616734 30.528380081538504 0.44547051647410796 -0.009738454991707255 -7.606327358586936 4.530222183429816 0 0 0 0 0 0 0 0 0 15.56037366685026 14.583599100936661 1.1770366403130128 -27.081679341155755 -53.30431938261672 85.27768397140451 63.80907212503392 4.0684799351051435 57.95718621769829 -26.993363620378798 -1.8061676332504535 14.782543146244969 0 0 0 0 0 0 0 0 0 0 0 0 0 0 0 0 0 0 0 0 0 0 0 0 0 0 0 0 0 0 0 0 0 0 0 0 0 0 0 0 0 0 0 0 0
-0.36036225091453 -5.105910270274675 -3.6936074595151744 0 -9.0055796417383 0 6.0502978727168495 -1.5462876741847063 8.614494004607437 -124.59834106388186 88.46353963488895 -120.00226166785814 26.248112459458387 54.4708942838359 31.256031091508785 0 0 0 -5.9825851788269135 -2.4002708402827087 -9.741438142917907 129.2589678824378 88.2702516697533 124.50433580470472 -25.246259185135248 54.581256370636204 -31.21680091792561 0 0 0 -0.2106664041647735 36.139903193042905 -0.22632969196175948 -0.37231022901368277 33.64936115846383 0.33208266160024186 0 0 0 -35.14708951518113 15.189259779571474 6.362897340152335 23.93147129973111 -48.3012882775185 -45.78014520955968 -119.21903113341985 44.05578358795939 7.024050206946778 -17.219432948672882 -29.851452282646445 3.1338534467673673 0 0 0 0 0 0 0 0 0 0 0 0 0 0 0 0 0 0 0 0 0 0 0 0 0 0 0 0 0 0 0 0 0 0 0 0 0 0 0 0 0 0 0 0 0 -0.002199897412616734 30.528380081538504 0.44547051647410796 -0.009790063550422938 -7.798658354651314 4.530322719350892 0 0 0 0 0 0 0 0 0 15.021515824566157 14.259663551458848 0.734963945725612 -26.97921220640347 -53.069141747976666 85.3810715863253 64.33684866974694 3.0595745915263457 58.25608275519713 -27.88407197095226 -2.0412948957933943 14.187710797716518 0 0 0 0 0 0 0 0 0 0 0 0 0 0 0 0 0 0 0 0 0 0 0 0 0 0 0 0 0 0 0 0 0 0 0 0 0 0 0 0 0 0 0 0 0
-0.36036225091453 -5.118561074178823 -3.710475108589947 0 -9.0055796417383 0 6.014508228548014 -1.7713644129368527 8.601722901489012 -133.00638675225335 88.30303280150167 -128.41346497938832 26.248112459458387 54.4708942838359 31.256031091508785 0 0 0 -5.942412223239842 -2.6252395790288907 -9.728607509457664 136.3803697957826 88.09504642100453 131.62908926732862 -25.246259185135248 54.581256370636204 -31.21680091792561 0 0 0 -0.21036320040602477 35.986116814067934 -0.22572216233145903 -0.3740033169626764 34.03389612009873 0.3290613282434184 0 0 0 -34.88052020133041 14.847559802267709 6.964326215237082 23.93147129973111 -48.3012882775185 -45.780147049188656 -119.21903113341985 44.05578833996983 7.024050206946778 -16.94294340817729 -30.221872250495082 3.1444662610792187 0 0 0 0 0 0 0 0 0 0 0 0 0 0 0 0 0 0 0 0 0 0 0 0 0 0 0 0 0 0 0 0 0 0 0 0 0 0 0 0 0 0 0 0 0 -0.002199897412616734 30.528380081538504 0.44547051647410796 -0.009842037482207546 -7.990989014178812 4.530423577413116 0 0 0 0 0 0 0 0 0 14.486020009350483 13.931729410671455 0.2966805742675274 -26.876600582231003 -52.83407688016546 85.48459491906556 64.85893960398488 2.0479786492306076 58.54543069828345 -28.77242734289472 -2.285623102110451 13.596516310923509 0 0 0 0 0 0 0 0 0 0 0 0 0 0 0 0 0 0 0 0 0 0 0 0 0 0 0 0 0 0 0 0 0 0 0 0 0 0 0 0 0 0 0 0 0
-0.36036225091453 -5.143862681987118 -3.7442109435240356 0 -9.005581370597064 0 5.943058632479399 -2.221592845516283 8.576595218127586 -145.3635820872036 87.9002500298996 -140.77697244146864 26.248112459458387 54.4708942838359 31.256031091508785 0 0 0 -5.8621828791374675 -3.075254411504307 -9.703407455192961 147.02495944930484 87.67787959246651 142.28038124534936 -25.246261698424107 54.581256370636204 -31.216805499000223 0 0 0 -0.20976612426126884 35.67853059772051 -0.22451371605502682 -0.37748716488633566 34.80321574378229 0.32293467943969484 0 0 0 -34.35926548133481 14.155471780249618 8.160634368530456 23.93147129973111 -48.3012882775185 -45.78014883939031 -119.21903992016924 44.05579309198065 7.024049019421012 -16.38675098616134 -30.963161446732695 3.159563117950016 0 0 0 0 0 0 0 0 0 0 0 0 0 0 0 0 0 0 0 0 0 0 0 0 0 0 0 0 0 0 0 0 0 0 0 0 0 0 0 0 0 0 0 0 0 -0.002199897412616734 30.528380081538504 0.44547051647410796 -0.009947267219559635 -8.375680437341778 4.5306260027890515 0 0 0 0 0 0 0 0 0 13.4239923802379 13.263381881481497 -0.5693822758151221 -26.670873069774927 -52.364184267645655 85.6920693211474 65.8864979624426 0.0188477622797562 59.095746035604655 -30.54656541026756 -2.8029699367761047 12.422413347534432 0 0 0 0 0 0 0 0 0 0 0 0 0 0 0 0 0 0 0 0 0 0 0 0 0 0 0 0 0 0 0 0 0 0 0 0 0 0 0 0 0 0 0 0 0
